name Walk1.mot
datacolumns 19
datarows 25
range 2.60000000 2.72000000
endheader

                time	   L_ground_force_vx	   L_ground_force_vy	   L_ground_force_vz	   L_ground_force_px	   L_ground_force_py	   L_ground_force_pz	   R_ground_force_vx	   R_ground_force_vy	   R_ground_force_vz	   R_ground_force_px	   R_ground_force_py	   R_ground_force_pz	   L_ground_torque_x	   L_ground_torque_y	   L_ground_torque_z	   R_ground_torque_x	   R_ground_torque_y	   R_ground_torque_z	
          2.60000000	          0.00000006	          0.00000023	         -0.00000002	         -0.00000000	          0.00000000	         -0.00000000	         42.10518917	        184.94191590	          5.32586842	          0.26284323	          0.00000000	          0.07303938	          0.00000000	         -0.00000000	          0.00000000	          0.00000000	         -9.85663658	          0.00000000	
          2.60500000	          0.00000003	          0.00000013	         -0.00000001	         -0.00000000	          0.00000000	         -0.00000000	         32.88403974	        143.59800746	          5.48866753	          0.25972214	          0.00000000	          0.06840772	          0.00000000	         -0.00000000	          0.00000000	          0.00000000	         -8.11035863	          0.00000000	
          2.61000000	          0.00000000	          0.00000005	         -0.00000001	         -0.00000000	          0.00000000	         -0.00000000	         24.39504278	        107.16367512	          5.16134174	          0.25198948	          0.00000000	          0.06279405	          0.00000000	         -0.00000000	          0.00000000	          0.00000000	         -6.42973448	          0.00000000	
          2.61500000	         -0.00000001	          0.00000000	         -0.00000001	         -0.00000000	          0.00000000	         -0.00000000	         16.94813832	         76.17176739	          4.50439248	          0.23848917	          0.00000000	          0.05620523	          0.00000000	         -0.00000000	          0.00000000	          0.00000000	         -4.88371922	          0.00000000	
          2.62000000	         -0.00000002	         -0.00000003	         -0.00000000	         -0.00000000	          0.00000000	         -0.00000000	         10.74794148	         50.72249328	          3.68607717	          0.21844511	          0.00000000	          0.04875097	          0.00000000	          0.00000000	          0.00000000	          0.00000000	         -3.52393256	          0.00000000	
          2.62500000	         -0.00000003	         -0.00000005	         -0.00000000	         -0.00000000	          0.00000000	         -0.00000000	          5.87448825	         30.57080561	          2.84781391	          0.19198389	          0.00000000	          0.04068732	          0.00000000	          0.00000000	          0.00000000	          0.00000000	         -2.37978175	          0.00000000	
          2.63000000	         -0.00000003	         -0.00000006	          0.00000000	         -0.00000000	          0.00000000	         -0.00000000	          2.27371612	         15.26600868	          2.08027436	          0.16074738	          0.00000000	          0.03244017	          0.00000000	          0.00000000	          0.00000000	          0.00000000	         -1.45914954	          0.00000000	
          2.63500000	         -0.00000003	         -0.00000006	          0.00000000	         -0.00000000	          0.00000000	         -0.00000000	         -0.21557228	          4.24510546	          1.42339735	          0.12803922	          0.00000000	          0.02459145	          0.00000000	          0.00000000	          0.00000000	          0.00000000	         -0.75340621	          0.00000000	
          2.64000000	         -0.00000002	         -0.00000006	          0.00000000	         -0.00000000	          0.00000000	         -0.00000000	         -1.79485555	         -3.15812279	          0.88958133	          0.09693775	          0.00000000	          0.01761333	          0.00000000	          0.00000000	          0.00000000	          0.00000000	         -0.24124135	          0.00000000	
          2.64500000	         -0.00000002	         -0.00000005	          0.00000000	          0.00000000	          0.00000000	         -0.00000000	         -2.66566794	         -7.65590033	          0.47690033	          0.06932638	          0.00000000	          0.01174539	          0.00000000	          0.00000000	          0.00000000	          0.00000000	          0.10627932	          0.00000000	
          2.65000000	         -0.00000001	         -0.00000004	          0.00000000	          0.00000000	          0.00000000	          0.00000000	         -3.01328096	         -9.93474878	          0.17453894	          0.04613686	          0.00000000	          0.00705348	          0.00000000	          0.00000000	          0.00000000	          0.00000000	          0.32073218	          0.00000000	
          2.65500000	         -0.00000001	         -0.00000003	          0.00000000	          0.00000000	          0.00000000	          0.00000000	         -2.99788436	        -10.61041165	         -0.03316347	          0.02761701	          0.00000000	          0.00348681	          0.00000000	          0.00000000	          0.00000000	          0.00000000	          0.43289062	          0.00000000	
          2.66000000	         -0.00000001	         -0.00000002	          0.00000000	          0.00000000	          0.00000000	          0.00000000	         -2.75091442	        -10.20454589	         -0.16373618	          0.01355641	          0.00000000	          0.00092380	          0.00000000	          0.00000000	          0.00000000	          0.00000000	          0.47057923	          0.00000000	
          2.66500000	         -0.00000000	         -0.00000002	          0.00000000	          0.00000000	          0.00000000	          0.00000000	         -2.37497331	         -9.13721584	         -0.23452037	          0.00346748	          0.00000000	         -0.00079286	          0.00000000	          0.00000000	          0.00000000	          0.00000000	          0.45753108	          0.00000000	
          2.67000000	         -0.00000000	         -0.00000001	          0.00000000	          0.00000000	          0.00000000	          0.00000000	         -1.94605789	         -7.73011447	         -0.26136518	         -0.00327660	          0.00000000	         -0.00183102	          0.00000000	          0.00000000	          0.00000000	          0.00000000	          0.41297838	          0.00000000	
          2.67500000	         -0.00000000	         -0.00000001	          0.00000000	          0.00000000	          0.00000000	          0.00000000	         -1.51709309	         -6.21640903	         -0.25790941	         -0.00734230	          0.00000000	         -0.00235196	          0.00000000	          0.00000000	          0.00000000	          0.00000000	          0.35174600	          0.00000000	
          2.68000000	         -0.00000000	         -0.00000000	          0.00000000	          0.00000000	          0.00000000	          0.00000000	         -1.12202255	         -4.75405627	         -0.23529578	         -0.00936887	          0.00000000	         -0.00250002	          0.00000000	          0.00000000	          0.00000000	          0.00000000	          0.28466001	          0.00000000	
          2.68500000	          0.00000000	         -0.00000000	          0.00000000	          0.00000000	          0.00000000	          0.00000000	         -0.77993305	         -3.44028940	         -0.20218504	         -0.00992751	          0.00000000	         -0.00239724	          0.00000000	          0.00000000	          0.00000000	          0.00000000	          0.21912589	          0.00000000	
          2.69000000	          0.00000000	          0.00000000	          0.00000000	          0.00000000	          0.00000000	          0.00000000	         -0.49887441	         -2.32571086	         -0.16496137	         -0.00950061	          0.00000000	         -0.00214174	          0.00000000	          0.00000000	          0.00000000	          0.00000000	          0.15976993	          0.00000000	
          2.69500000	          0.00000000	          0.00000000	          0.00000000	          0.00000000	          0.00000000	          0.00000000	         -0.27918201	         -1.42701763	         -0.12804411	         -0.00847546	          0.00000000	         -0.00180851	          0.00000000	         -0.00000000	          0.00000000	          0.00000000	          0.10907023	          0.00000000	
          2.70000000	          0.00000000	          0.00000000	         -0.00000000	          0.00000000	          0.00000000	          0.00000000	         -0.11621761	         -0.73784324	         -0.09424304	         -0.00714774	          0.00000000	         -0.00145178	          0.00000000	         -0.00000000	          0.00000000	          0.00000000	          0.06793135	          0.00000000	
          2.70500000	          0.00000000	          0.00000000	         -0.00000000	          0.00000000	          0.00000000	          0.00000000	         -0.00252029	         -0.23753457	         -0.06511358	         -0.00573101	          0.00000000	         -0.00110820	          0.00000000	         -0.00000000	          0.00000000	          0.00000000	          0.03617724	          0.00000000	
          2.71000000	          0.00000000	          0.00000000	         -0.00000000	          0.00000000	          0.00000000	          0.00000000	          0.07059092	          0.10208980	         -0.04128373	         -0.00436923	          0.00000000	         -0.00080022	          0.00000000	         -0.00000000	          0.00000000	          0.00000000	          0.01295277	          0.00000000	
          2.71500000	          0.00000000	          0.00000000	         -0.00000000	         -0.00000000	          0.00000000	          0.00000000	          0.11189284	          0.31181026	         -0.02273707	         -0.00315039	          0.00000000	         -0.00053944	          0.00000000	         -0.00000000	          0.00000000	          0.00000000	         -0.00296505	          0.00000000	
          2.72000000	          0.00000000	          0.00000000	         -0.00000000	         -0.00000000	          0.00000000	         -0.00000000	          0.12952958	          0.42163950	         -0.00904522	         -0.00211962	          0.00000000	         -0.00032954	          0.00000000	         -0.00000000	          0.00000000	          0.00000000	         -0.01293834	          0.00000000	
